nohup: 忽略输入
Namespace(bands=3, batch_size=4, best_model_path='savedmodels/aero/deeplabv3plus+mobilenetv2_78.pth', dataset='aero', epochs=300, ignore_index=0, learning_rate=0.001, n_classes=12, network_arch='deeplabv3+', pipe=False, show=False, source='rtmp://218.192.100.219/live/1581F5BMD2333001VNP4', sourceout='rtmp://218.192.100.219/live/16316423059528458221581F5BMD2333001VNP4', use_GPU=True, use_augs=False)
ffmpeg version 4.1.3 Copyright (c) 2000-2019 the FFmpeg developers
  built with gcc 9 (Ubuntu 9.4.0-1ubuntu1~20.04.1)
  configuration: --disable-x86asm --enable-gpl --enable-libx264
  libavutil      56. 22.100 / 56. 22.100
  libavcodec     58. 35.100 / 58. 35.100
  libavformat    58. 20.100 / 58. 20.100
  libavdevice    58.  5.100 / 58.  5.100
  libavfilter     7. 40.101 /  7. 40.101
  libswscale      5.  3.100 /  5.  3.100
  libswresample   3.  3.100 /  3.  3.100
  libpostproc    55.  3.100 / 55.  3.100
Input #0, rawvideo, from 'pipe:':
  Duration: N/A, bitrate: 414720 kb/s
    Stream #0:0: Video: rawvideo (BGR[24] / 0x18524742), bgr24, 960x720, 414720 kb/s, 25 tbr, 25 tbn, 25 tbc
Stream mapping:
  Stream #0:0 -> #0:0 (rawvideo (native) -> h264 (libx264))
[libx264 @ 0x55fe8d68cfc0] using cpu capabilities: none!
[libx264 @ 0x55fe8d68cfc0] profile Constrained Baseline, level 3.1, 4:2:0, 8-bit
[libx264 @ 0x55fe8d68cfc0] 264 - core 164 r3106 eaa68fa - H.264/MPEG-4 AVC codec - Copyleft 2003-2023 - http://www.videolan.org/x264.html - options: cabac=0 ref=1 deblock=0:0:0 analyse=0:0 me=dia subme=0 psy=1 psy_rd=1.00:0.00 mixed_ref=0 me_range=16 chroma_me=1 trellis=0 8x8dct=0 cqm=0 deadzone=21,11 fast_pskip=1 chroma_qp_offset=0 threads=22 lookahead_threads=3 sliced_threads=0 nr=0 decimate=1 interlaced=0 bluray_compat=0 constrained_intra=0 bframes=0 weightp=0 keyint=250 keyint_min=25 scenecut=0 intra_refresh=0 rc=crf mbtree=0 crf=23.0 qcomp=0.60 qpmin=0 qpmax=69 qpstep=4 ip_ratio=1.40 aq=0
Output #0, flv, to 'rtmp://218.192.100.219/live/16316423059528458221581F5BMD2333001VNP4':
  Metadata:
    encoder         : Lavf58.20.100
    Stream #0:0: Video: h264 (libx264) ([7][0][0][0] / 0x0007), yuv420p, 960x720, q=-1--1, 25 fps, 1k tbn, 25 tbc
    Metadata:
      encoder         : Lavc58.35.100 libx264
    Side data:
      cpb: bitrate max/min/avg: 0/0/0 buffer size: 0 vbv_delay: -1
frame=    0 fps=0.0 q=0.0 Lsize=       0kB time=00:00:00.00 bitrate=N/A speed=   0x    
video:0kB audio:0kB subtitle:0kB other streams:0kB global headers:0kB muxing overhead: unknown
